<?xml version="1.0" encoding="UTF-8" standalone="no"?>
<svg
   xmlns:dc="http://purl.org/dc/elements/1.1/"
   xmlns:cc="http://creativecommons.org/ns#"
   xmlns:rdf="http://www.w3.org/1999/02/22-rdf-syntax-ns#"
   xmlns:svg="http://www.w3.org/2000/svg"
   xmlns="http://www.w3.org/2000/svg"
   xmlns:sodipodi="http://sodipodi.sourceforge.net/DTD/sodipodi-0.dtd"
   xmlns:inkscape="http://www.inkscape.org/namespaces/inkscape"
   width="242"
   height="300"
   viewBox="0 0 336 419"
   version="1.0"
   id="svg2"
   sodipodi:version="0.32"
   inkscape:version="0.46"
   sodipodi:docname="IRCTC.svg"
   inkscape:output_extension="org.inkscape.output.svg.inkscape">
  <metadata
     id="metadata42">
    <rdf:RDF>
      <cc:Work
         rdf:about="">
        <dc:format>image/svg+xml</dc:format>
        <dc:type
           rdf:resource="http://purl.org/dc/dcmitype/StillImage" />
      </cc:Work>
    </rdf:RDF>
  </metadata>
  <defs
     id="defs40">
    <inkscape:perspective
       sodipodi:type="inkscape:persp3d"
       inkscape:vp_x="0 : 261.875 : 1"
       inkscape:vp_y="0 : 1000 : 0"
       inkscape:vp_z="420 : 261.875 : 1"
       inkscape:persp3d-origin="210 : 174.58333 : 1"
       id="perspective44" />
  </defs>
  <sodipodi:namedview
     inkscape:window-height="722"
     inkscape:window-width="1280"
     inkscape:pageshadow="2"
     inkscape:pageopacity="0.0"
     guidetolerance="10.0"
     gridtolerance="10.0"
     objecttolerance="10.0"
     borderopacity="1.0"
     bordercolor="#666666"
     pagecolor="#ffffff"
     id="base"
     showgrid="false"
     inkscape:zoom="0.88210024"
     inkscape:cx="342.978"
     inkscape:cy="234.97052"
     inkscape:window-x="-8"
     inkscape:window-y="20"
     inkscape:current-layer="svg2" />
  <g
     id="#ffffffff" />
  <g
     id="#0b4c76ff">
    <path
       d="M 174.18,0 L 183.69,0 C 197.62,1.74 210.84,8.04 221.02,17.7 C 238.59,33.98 246.21,57.86 250.09,80.85 C 250.22,82.45 250.3,84.06 250.46,85.67 C 237.1,85.5 223.73,85.87 210.37,85.48 C 210.17,85.47 209.76,85.43 209.56,85.41 C 206.87,74.05 202.5,62.85 195.57,53.38 C 185.63,39.67 168.82,31.77 152.06,31.36 C 140.13,31.13 128.67,36.13 119.48,43.49 C 108.02,52.49 98.82,63.99 90.23,75.66 C 98.33,58.32 108.98,42.04 122.06,28.03 C 135.77,13.4 153.9,2.05 174.18,0 z"
       id="path6"
       style="opacity:1;fill:#0b4c76" />
    <path
       d="M 119.98,131.79 C 134.67,131.75 149.37,131.68 164.05,131.82 C 172.16,135.35 179.82,140.6 185.26,147.66 C 191,155.03 192.22,165.36 188.9,174.02 C 186.96,178.41 182.87,181.38 178.87,183.78 C 171.34,188.06 163.01,190.61 154.8,193.23 C 154.6,194.86 154.41,196.48 154.21,198.11 C 167.61,211.64 181.66,224.5 195.11,237.98 C 192.77,238.43 190.39,238.27 188.03,238.25 C 165.33,238.23 142.63,238.29 119.93,238.22 C 119.83,202.74 119.81,167.25 119.98,131.79 z"
       id="path8"
       style="opacity:1;fill:#0b4c76" />
    <path
       d="M 184.32,131.94 C 198.56,131.5 212.81,131.89 227.06,131.75 C 227.31,167.24 227.12,202.74 227.15,238.24 C 221.76,238.13 216.33,238.54 210.95,238.06 C 197.83,225.08 185.02,211.75 171.95,198.71 C 180.6,196 189.63,192.73 195.69,185.61 C 207.36,172.86 205.86,151.26 193.65,139.41 C 190.97,136.41 187.45,134.41 184.32,131.94 z"
       id="path10"
       style="opacity:1;fill:#0b4c76" />
    <path
       d="M 47.47,165.04 L 47.74,164.82 C 54.47,177.08 61.38,189.25 67.89,201.64 C 67.83,201.65 67.7,201.69 67.63,201.71 C 65.89,201.97 64.73,203.36 63.55,204.51 C 56.27,212.25 49.34,220.63 45.27,230.55 C 40.68,241.38 40.1,253.68 43.06,265.02 C 45.8,277.24 53.47,288.25 64.12,294.88 C 79.59,304.73 98.13,307.4 115.86,310.37 C 91.3,311.45 65.96,309.44 43.1,299.75 C 26.78,292.85 11.97,280.67 5.03,264.03 C -1.48,249.44 -0.94,232.47 4.31,217.58 C 12.04,195.63 29.3,178.77 47.47,165.04 z"
       id="path12"
       style="opacity:1;fill:#0b4c76" />
    <path
       d="M 305.17,168.07 C 320.37,190.24 333.7,215.07 336,242.31 L 336,255.79 C 335.17,269.29 329.71,282.48 320.65,292.55 C 310.33,303.69 295.92,310.68 280.99,312.99 C 259.98,316.12 238.87,311.03 219.22,303.83 C 219.4,303.43 219.77,302.62 219.95,302.22 C 225.8,290.59 232.3,279.29 238.49,267.85 L 238.95,267.63 C 250.97,270.93 263.77,272.45 276.14,270.31 C 291.33,267.55 304.72,257.69 312.87,244.71 C 318.02,236.49 320.23,226.61 319.69,216.96 C 319.05,199.68 311.48,183.82 305.17,168.07 z"
       id="path14"
       style="opacity:1;fill:#0b4c76" />
    <path
       d="M 70.34,350.61 C 81.42,350.82 92.51,350.57 103.59,350.75 C 108.36,351.17 113.53,351.45 117.48,354.49 C 124.98,360.28 126.6,372.31 120.76,379.82 C 117.3,384.58 111.33,386.45 105.79,387.41 C 110.7,390.36 114.64,394.58 117.73,399.37 C 121.66,405.61 125.78,411.74 129.62,418.04 C 126.1,418.78 122.45,418.74 118.94,418.02 C 117.89,417.45 117.42,416.25 116.74,415.35 C 112.6,408.86 108.62,402.25 104.09,396.03 C 101.53,392.53 98.22,388.96 93.69,388.4 C 88.88,388.08 84.05,388.28 79.23,388.27 C 79.23,398.22 79.31,408.18 79.19,418.13 C 76.23,418.73 73.21,418.62 70.27,417.92 C 70.4,395.48 70.26,373.05 70.34,350.61 M 79.22,358.2 C 79.21,365.57 79.34,372.94 79.15,380.31 C 86.08,380.7 93.04,380.42 99.98,380.47 C 104.75,380.37 110.51,379.59 113.26,375.16 C 115.85,371.36 115.8,365.9 112.68,362.42 C 110.19,359.23 105.94,358.26 102.09,358.24 C 94.46,358.15 86.84,358.19 79.22,358.2 z"
       id="path16"
       style="opacity:1;fill:#0b4c76" />
    <path
       d="M 142.77,360.83 C 150.12,351.2 163.56,347.81 175.07,350.36 C 184.34,352.28 192.19,360 194.02,369.32 C 191.66,369.82 189.32,370.46 186.93,370.84 C 185.23,371.61 184.97,369.37 184.37,368.39 C 182.39,363.17 177.92,358.74 172.32,357.66 C 165.46,356.42 157.69,357.49 152.45,362.45 C 146.78,367.61 145.35,375.64 144.81,382.93 C 144.83,391.02 146.09,399.97 151.96,406.04 C 159.01,412.77 171.03,413.78 178.88,407.85 C 183.21,404.65 185.3,399.47 186.62,394.44 C 189.56,395.29 192.52,396.08 195.48,396.88 C 194.03,401.32 192.39,405.82 189.38,409.46 C 185.11,414.87 178.6,418.32 171.75,419 L 163.25,419 C 156.92,418.72 150.6,416.4 146.01,411.97 C 140.06,406.26 137.15,398.08 136.11,390.06 C 134.82,380 136.45,369.02 142.77,360.83 z"
       id="path18"
       style="opacity:1;fill:#0b4c76" />
    <path
       d="M 274.89,354.9 C 283.28,349.42 294.22,348.07 303.73,351.17 C 311.83,353.85 318.03,361.07 319.96,369.31 C 317.07,369.95 314.18,370.59 311.24,370.96 C 309.79,367.04 307.93,363.04 304.45,360.5 C 300.1,357.17 294.31,356.8 289.06,357.46 C 281.91,358.27 275.49,363.46 273.11,370.23 C 270.2,378.11 269.96,386.86 271.98,394.98 C 273.05,399.32 274.99,403.6 278.43,406.59 C 285.56,412.82 297.16,413.6 304.79,407.82 C 309.12,404.62 310.97,399.36 312.63,394.46 C 315.37,395.34 318.16,396.06 320.98,396.61 C 319.24,408.12 309.47,417.97 297.73,419 L 288.23,419 C 279.51,418.5 271.3,413.53 267.04,405.89 C 261.96,396.89 260.52,386.05 262.19,375.93 C 263.54,367.67 267.78,359.57 274.89,354.9 z"
       id="path20"
       style="opacity:1;fill:#0b4c76" />
    <path
       d="M 45.33,417.8 C 45.69,395.41 45.13,372.99 45.62,350.61 C 48.52,350.72 51.42,350.71 54.32,350.66 C 54.37,373.17 54.41,395.67 54.29,418.17 C 51.31,418.73 48.22,418.88 45.33,417.8 z"
       id="path22"
       style="opacity:1;fill:#0b4c76" />
    <path
       d="M 201.36,358.63 C 201.32,355.95 201.33,353.27 201.54,350.6 C 219.31,350.84 237.08,350.55 254.86,350.74 C 254.81,353.38 254.81,356.02 254.78,358.66 C 247.38,358.59 239.97,358.61 232.57,358.64 C 232.6,378.38 232.49,398.13 232.63,417.87 C 229.69,418.58 226.66,418.56 223.68,418.11 C 223.48,398.25 223.89,378.38 223.47,358.53 C 216.1,358.72 208.73,358.57 201.36,358.63 z"
       id="path24"
       style="opacity:1;fill:#0b4c76" />
  </g>
  <g
     id="#ccc7d2ff">
    <path
       d="M 250.09,80.85 C 250.42,82.27 250.79,83.67 251.16,85.08 C 261.73,85.86 272.31,84.64 282.88,84.98 C 283.2,112.77 281.08,140.63 275.65,167.9 C 268.84,202.66 256.4,236.32 238.93,267.13 C 241.85,256.47 245.78,246.1 248.4,235.35 C 256.99,202.04 260.67,167.3 257.75,132.98 C 256.71,117.03 253.9,101.26 250.46,85.67 C 250.3,84.06 250.22,82.45 250.09,80.85 z"
       id="path27"
       style="opacity:1;fill:#ccc7d2" />
    <path
       d="M 141.76,92.69 C 164.03,88.02 186.78,84.97 209.56,85.41 C 209.76,85.43 210.17,85.47 210.37,85.48 C 194.06,88.91 177.71,92.43 161.92,97.86 C 140.55,104.82 119.9,114.08 100.62,125.63 C 81.45,136.47 64.36,150.48 47.74,164.82 L 47.47,165.04 C 42.33,155.55 36.08,146.68 31.33,137 C 65.68,116.89 102.85,101.34 141.76,92.69 z"
       id="path29"
       style="opacity:1;fill:#ccc7d2" />
    <path
       d="M 67.63,201.71 C 67.7,201.69 67.83,201.65 67.89,201.64 L 68.07,201.97 L 67.63,201.71 z"
       id="path31"
       style="opacity:1;fill:#ccc7d2" />
    <path
       d="M 68.07,201.97 C 68.21,202.13 68.49,202.45 68.64,202.61 C 68.49,202.45 68.21,202.13 68.07,201.97 z"
       id="path33"
       style="opacity:1;fill:#ccc7d2" />
    <path
       d="M 68.64,202.61 C 79.17,213.29 88.73,224.99 100.15,234.8 C 133.03,265.13 172.65,287.86 215.05,301.94 C 216.63,302.48 218.33,302.85 219.95,302.22 C 219.77,302.62 219.4,303.43 219.22,303.83 C 214.35,312.7 209.2,321.44 204.2,330.24 C 203.53,331.91 201.81,330.65 200.79,330.15 C 153.14,302.53 110.15,265.71 79.21,219.86 C 75.6,214.16 71.53,208.72 68.64,202.61 z"
       id="path35"
       style="opacity:1;fill:#ccc7d2" />
    <path
       d="M 238.49,267.85 C 238.6,267.67 238.82,267.31 238.93,267.13 L 238.95,267.63 L 238.49,267.85 z"
       id="path37"
       style="opacity:1;fill:#ccc7d2" />
  </g>
  <path
     style="fill:#000080;fill-opacity:1"
     d="M 260.32342,99.47849 C 250.30308,63.435908 226.70726,42.016597 193.74643,39.042626 C 172.55506,37.130587 151.59385,48.290816 129.24414,73.385095 C 124.67224,78.51848 120.70199,82.48897 120.42144,82.208424 C 120.14088,81.927866 122.09924,77.982906 124.77333,73.441835 C 142.5456,43.261251 166.65802,19.141056 189.67665,8.5175467 C 213.09645,-2.2911228 232.13835,-2.3003281 254.55276,8.4861444 C 283.02322,22.186991 301.1732,48.999805 309.50388,89.665195 C 310.8331,96.153653 312.15891,102.61022 312.45003,104.01312 L 312.97934,106.56385 L 287.6363,106.56385 L 262.29326,106.56385 L 260.32342,99.47849 z"
     id="path2417"
     transform="scale(0.8,0.8)" />
  <path
     style="fill:#000080;fill-opacity:1"
     d="M 103.77624,386.46412 C 98.788149,385.94415 89.666476,384.44372 83.505873,383.12981 C 41.05742,374.07657 14.733847,353.85644 3.8705126,321.95887 C 2.1848085,317.00913 1.7535423,312.45188 1.7786529,299.85254 C 1.808094,285.08897 2.051581,283.30125 5.2677688,274.23653 C 11.385498,256.99392 19.769137,243.98952 34.346539,229.13057 C 44.150799,219.13698 58.836953,206.92172 59.840852,207.92562 C 60.234821,208.31958 65.743503,218.13436 72.082398,229.73623 L 83.607664,250.83055 L 78.024613,256.6362 C 55.734471,279.81499 47.652759,302.49662 52.729722,327.62716 C 55.425277,340.96999 60.042417,350.09646 68.786174,359.36531 C 80.539498,371.82447 96.149776,378.91464 125.03843,384.91508 L 137.78598,387.56282 L 125.31575,387.48617 C 118.45712,387.44397 108.76434,386.98404 103.77624,386.46409 L 103.77624,386.46412 z"
     id="path2419"
     transform="scale(0.8,0.8)" />
  <path
     style="fill:#000080;fill-opacity:1"
     d="M 320.87175,391.06544 C 309.99419,389.74382 299.3106,387.26222 285.53223,382.85674 L 274.56636,379.35052 L 279.17797,370.77709 C 293.448,344.24775 298.51012,335.56286 299.70273,335.5637 C 300.43428,335.56421 304.74751,336.33961 309.2877,337.2868 C 320.21469,339.56641 341.02298,339.55746 349.67551,337.26942 C 370.91947,331.65181 390.04008,314.1154 397.03566,293.83332 C 399.17068,287.64336 399.64149,283.95555 399.59591,273.77841 C 399.53402,259.94017 397.3999,250.08752 390.43879,231.50181 C 388.24607,225.64737 386.65827,220.65106 386.91039,220.39891 C 387.16263,220.14675 390.54773,225.27687 394.43289,231.79916 C 405.03906,249.60407 412.43232,267.67614 417.40409,287.94913 C 419.77446,297.61479 419.41917,326.44835 416.82423,334.99594 C 412.99654,347.60518 406.05073,359.28653 397.11003,368.15152 C 390.34708,374.85736 386.69613,377.38696 377.23802,381.92042 C 370.86528,384.97501 362.29618,388.27621 358.19552,389.25642 C 348.57008,391.5573 331.66372,392.37672 320.87175,391.06548 L 320.87175,391.06544 z"
     id="path2421"
     transform="scale(0.8,0.8)" />
  <path
     style="fill:#000080;fill-opacity:1"
     d="M 150.82305,231.26623 L 150.82305,165.51407 L 178.07603,165.51407 C 208.70705,165.51407 208.55172,165.47998 220.90762,174.91313 C 238.16538,188.0886 243.1099,209.61708 231.76288,222.17688 C 227.11971,227.31634 215.27183,233.74012 202.60247,237.98733 C 193.91963,240.89814 193.31353,241.31094 192.99109,244.53367 C 192.67786,247.66476 194.86421,250.17051 217.36474,272.4675 L 242.08252,296.96169 L 196.45279,296.99003 L 150.82305,297.0184 L 150.82305,231.26623 z"
     id="path2423"
     transform="scale(0.8,0.8)" />
  <path
     style="fill:#000080;fill-opacity:1"
     d="M 247.15997,280.29694 C 238.12142,271.10014 227.53277,260.23623 223.62963,256.15492 L 216.53301,248.73435 L 225.90679,244.91424 C 233.6126,241.77387 236.60495,239.76585 242.72334,233.62945 C 249.17981,227.15401 250.5153,225.06897 252.80103,217.89597 C 254.99931,210.99751 255.31061,208.27897 254.67984,201.4919 C 253.46989,188.47367 247.24862,177.06534 237.15751,169.36021 L 232.12039,165.51407 L 257.79071,165.51407 L 283.46104,165.51407 L 283.46104,231.26623 L 283.46104,297.0184 L 273.52736,297.0184 L 263.59368,297.0184 L 247.15997,280.29694 z"
     id="path2425"
     transform="scale(0.8,0.8)" />
  <path
     style="fill:#000080;fill-opacity:1"
     d="M 88.471861,480.56001 L 88.471861,438.50361 L 113.12892,438.89904 C 136.27531,439.2702 138.11689,439.45731 143.18688,441.95307 C 150.38577,445.4968 154.27826,451.97626 154.38112,460.58717 C 154.51625,471.8987 148.06281,479.94686 136.52867,482.85119 L 131.25541,484.17901 L 135.08753,486.9652 C 140.22499,490.70052 142.93323,494.00984 151.34524,506.8312 C 162.45342,523.76204 162.18613,522.61634 155.02817,522.61634 L 148.95062,522.61634 L 138.2668,506.47563 C 124.8189,486.15883 123.51973,485.20563 109.27689,485.20563 L 98.674784,485.20563 L 98.674784,503.91098 L 98.674784,522.61634 L 93.573323,522.61634 L 88.471861,522.61634 L 88.471861,480.56001 z M 136.91657,473.55117 C 146.10845,468.56591 146.31152,454.19725 137.25626,449.51459 C 134.70209,448.19379 129.84226,447.79491 116.30278,447.79491 L 98.674784,447.79491 L 98.674784,462.06735 L 98.674784,476.33986 L 115.96307,475.93944 C 129.74377,475.62028 133.99498,475.13573 136.91655,473.55119 L 136.91657,473.55117 z"
     id="path2427"
     transform="scale(0.8,0.8)" />
  <path
     style="fill:#000080;fill-opacity:1"
     d="M 57.24583,521.40104 C 56.832702,520.73262 56.870238,501.85722 57.32921,479.45569 L 58.163741,438.72565 L 62.548016,438.72565 L 66.932359,438.72565 L 66.932359,480.671 L 66.932359,522.61634 L 62.464636,522.61634 C 60.007387,522.61634 57.658912,522.06945 57.245807,521.40104 L 57.24583,521.40104 z"
     id="path2429"
     transform="scale(0.8,0.8)" />
  <path
     style="fill:#000080;fill-opacity:1"
     d="M 199.25594,522.64285 C 176.88372,518.59009 164.78169,491.29416 172.92996,463.26511 C 175.66768,453.84777 181.97237,446.51976 191.27871,441.93825 C 198.26443,438.49917 199.87685,438.15934 209.1826,438.16455 C 220.87184,438.17108 227.08678,440.34236 233.35318,446.60876 C 236.85975,450.11536 241.51569,457.80058 241.51569,460.08209 C 241.51569,460.65462 239.47715,461.64046 236.98558,462.27288 L 232.4555,463.42277 L 229.50946,458.01001 C 225.76223,451.12506 221.33957,447.8738 214.18223,446.74238 C 201.18088,444.68718 189.95144,450.03359 184.48793,460.88013 C 181.73282,466.34975 180.04047,478.09197 180.91138,485.69558 C 183.10306,504.82994 192.45942,514.71608 208.31978,514.65584 C 219.62431,514.61291 226.74665,509.96288 231.31045,499.64564 C 233.83566,493.93705 235.22563,493.35663 240.65614,495.74309 L 243.76439,497.10904 L 240.87074,503.34416 C 233.57266,519.06974 218.39245,526.10949 199.2559,522.64287 L 199.25594,522.64285 z"
     id="path2431"
     transform="scale(0.8,0.8)" />
  <path
     style="fill:#000080;fill-opacity:1"
     d="M 280.06006,485.27081 L 280.06006,447.79491 L 265.75716,447.79491 C 251.47767,447.79491 251.4553,447.79072 252.13773,445.24418 C 252.51376,443.84128 252.82824,441.8007 252.83674,440.70955 C 252.85114,438.86592 255.18523,438.72565 285.84966,438.72565 C 315.47305,438.72565 318.77664,438.909 318.15891,440.51886 C 317.78027,441.50512 317.47078,443.5457 317.47078,445.05349 L 317.47078,447.79491 L 303.88241,447.79491 L 290.29394,447.79491 L 289.9951,484.92221 L 289.69616,522.04951 L 284.87811,522.39811 L 280.06006,522.7467 L 280.06006,485.27081 z"
     id="path2433"
     transform="scale(0.8,0.8)" />
  <path
     style="fill:#000075;fill-opacity:1"
     d="M 355.71417,522.5165 C 349.02887,520.94149 343.18645,517.51408 338.67529,512.52077 C 326.29982,498.82263 323.96324,471.9608 333.7093,455.43125 C 337.65681,448.73611 341.87379,445.03865 349.78003,441.34048 C 355.69172,438.57525 357.91732,438.16508 366.7849,438.20665 C 375.5491,438.24776 377.80156,438.67708 382.75814,441.25141 C 385.93182,442.89971 390.20435,446.15704 392.25264,448.4899 C 395.96753,452.72095 399.71041,460.02673 398.6874,461.04982 C 398.39061,461.34664 396.09812,461.86436 393.59297,462.20037 C 389.2692,462.78033 388.95676,462.61634 387.43312,458.96978 C 385.98125,455.49472 378.6636,447.86724 376.66496,447.74554 C 376.21898,447.71843 373.6789,447.27544 371.02025,446.76121 C 365.47927,445.68945 357.00846,446.96019 352.04735,449.60733 C 347.79205,451.87784 342.04576,459.407 340.0198,465.36661 C 339.11163,468.03778 338.49333,474.5599 338.51521,481.23782 C 338.54537,490.51852 339.01595,493.60235 341.10936,498.24269 C 346.15335,509.4234 353.95178,514.63095 365.65124,514.63095 C 377.36964,514.63098 384.72096,509.59408 389.34186,498.39905 C 391.09495,494.15171 391.27634,494.04456 395.40501,494.81577 C 397.74578,495.25301 399.83704,495.78386 400.05232,495.99542 C 401.02489,496.95148 398.673,503.56428 395.68445,508.27675 C 387.89985,520.5518 371.76824,526.29881 355.71417,522.51652 L 355.71417,522.5165 z"
     id="path2435"
     transform="scale(0.8,0.8)" />
  <path
     style="fill:#000075;fill-opacity:1"
     d="M 259.70095,97.211174 C 248.71735,63.934265 229.96716,45.699251 200.95808,40.082293 C 192.76945,38.496759 189.39202,38.352002 182.81955,39.304875 C 165.67354,41.790693 153.35776,49.049947 134.78179,67.619594 C 127.76728,74.631722 122.02814,79.981273 122.02814,79.507495 C 122.02814,79.033716 124.15334,75.107269 126.75081,70.782046 C 147.63517,36.006135 178.22935,9.8246884 205.99126,2.9707621 C 215.35087,0.66003837 229.48315,0.61305958 238.27332,2.8634728 C 253.07408,6.6526906 272.38861,18.237168 281.36339,28.708132 C 290.75397,39.664234 298.71573,54.211571 303.80912,69.719968 C 306.37955,77.546425 312.48268,102.79467 312.48268,105.60192 C 312.48268,106.13097 301.30136,106.56385 287.6353,106.56385 L 262.78793,106.56385 L 259.70095,97.211174 z"
     id="path3207"
     transform="scale(0.8,0.8)" />
  <path
     style="fill:#000075;fill-opacity:1"
     d="M 309.64854,388.8337 C 300.7134,387.00587 276.22607,380.17281 275.30209,379.24953 C 274.91693,378.8647 291.89984,347.63007 296.41189,340.42481 C 298.66815,336.82175 299.96304,335.77645 301.69087,336.16319 C 315.99336,339.36453 338.99608,339.88543 349.3718,337.24295 C 361.62007,334.12358 370.08079,329.06143 380.53345,318.5986 C 394.58548,304.53277 399.74272,292.80995 399.75236,274.91207 C 399.75916,262.26889 398.12851,253.50357 392.92626,238.22059 C 390.4575,230.96803 388.43811,224.52327 388.43845,223.89894 C 388.43879,223.27461 390.48504,226.07975 392.98578,230.13258 C 405.14165,249.83358 415.97206,278.15165 418.16602,295.97137 C 419.90925,310.1292 417.99416,331.64446 414.14177,341.18194 C 403.824,366.72612 383.26523,383.39858 354.58998,389.47646 C 344.02683,391.71541 322.20984,391.40335 309.64854,388.83371 L 309.64854,388.8337 z"
     id="path3209"
     transform="scale(0.8,0.8)" />
  <path
     style="fill:#000075;fill-opacity:1"
     d="M 240.42891,273.06306 L 216.71695,249.10769 L 226.33886,244.67296 C 237.40797,239.57123 246.34241,231.65039 251.05167,222.7638 C 253.7469,217.67776 254.05676,215.8728 254.06811,205.1921 C 254.07996,194.06075 253.84243,192.80033 250.4063,185.75922 C 247.90039,180.62431 244.54789,176.20779 239.86461,171.87191 L 232.99738,165.51407 L 258.00247,165.51407 L 283.00758,165.51407 L 283.00758,231.26623 L 283.00758,297.0184 L 273.57421,297.0184 L 264.14093,297.0184 L 240.42891,273.06306 z"
     id="path3211"
     transform="scale(0.8,0.8)" />
  <path
     style="fill:#000075;fill-opacity:1"
     d="M 151.50325,231.13615 L 151.50325,165.25391 L 178.42762,165.74565 C 208.54404,166.2957 209.68226,166.54051 219.90813,174.66701 C 230.58556,183.15237 236.00115,191.90954 237.2874,202.76984 C 239.04721,217.6288 230.04548,227.28655 205.92018,236.42301 C 193.69091,241.05433 191.35237,243.12992 193.52912,247.42086 C 194.24078,248.82376 205.34986,260.55712 218.21594,273.49499 L 241.60879,297.0184 L 196.55605,297.0184 L 151.50325,297.0184 L 151.50325,231.13615 z"
     id="path3213"
     transform="scale(0.8,0.8)" />
  <path
     style="fill:#000075;fill-opacity:1"
     d="M 111.25839,386.54825 C 56.633439,382.65852 20.664069,361.99844 5.7157678,325.92668 C 2.5407431,318.265 2.4295653,317.36496 2.4950794,299.85254 C 2.5586323,282.85567 2.7583488,281.21455 5.667814,273.77841 C 9.912377,262.92999 16.727748,250.53713 22.761529,242.69577 C 31.823606,230.91895 58.415754,206.67185 60.060737,208.68584 C 60.624199,209.37573 79.488959,243.66761 81.593278,247.82721 C 83.338737,251.27744 83.302857,251.41967 79.877475,254.62916 C 73.396024,260.70208 62.979759,274.59676 59.03235,282.43528 C 53.499011,293.423 51.627511,301.4699 51.684115,314.03042 C 51.822002,344.63118 68.012282,366.97956 97.768243,377.64298 C 101.44675,378.96122 111.08834,381.71038 119.19399,383.75225 C 135.42083,387.83991 134.40817,388.19669 111.25839,386.54825 z"
     id="path3215"
     transform="scale(0.8,0.8)" />
  <path
     style="fill:#000075;fill-opacity:1"
     d="M 311.91585,389.4208 C 300.37337,387.06192 276.8285,380.46733 275.26776,379.15613 C 274.58611,378.58345 296.64276,339.28612 298.62545,337.54072 C 300.33655,336.03438 301.70585,336.00848 309.64854,337.33217 C 320.54031,339.14733 338.21137,339.38868 346.62111,337.83715 C 368.94135,333.71922 392.24063,311.8622 398.03849,289.60252 C 401.6416,275.76986 399.85597,259.05802 392.41442,236.9609 C 390.23666,230.49405 388.67992,224.9779 388.95506,224.70276 C 390.87695,222.78091 406.26046,253.89919 412.23507,271.79414 C 418.07238,289.27812 419.50465,298.96981 418.64352,315.15693 C 417.8189,330.65505 415.82593,338.96585 410.50567,349.09012 C 400.59523,367.94968 385.7807,379.84209 362.36364,387.73621 C 352.74623,390.9783 324.20154,391.93149 311.91585,389.42077 L 311.91585,389.4208 z"
     id="path3217"
     transform="scale(0.8,0.8)" />
  <path
     style="fill:#000075;fill-opacity:1"
     d="M 66.992579,480.671 C 66.992579,457.2893 67.143322,447.72406 67.327575,459.41491 C 67.511851,471.10576 67.511829,490.23624 67.327575,501.92708 C 67.143344,513.61793 66.992579,504.05269 66.992579,480.671 z"
     id="path3219"
     transform="scale(0.8,0.8)" />
  <path
     style="fill:#000075;fill-opacity:1"
     d="M 89.152056,480.49531 L 89.152056,438.37435 L 113.10903,439.16433 C 138.28125,439.99444 142.44074,440.79443 147.94949,445.86512 C 156.46426,453.70279 155.45478,471.55376 146.12096,478.20003 C 144.37951,479.44006 140.28925,481.32644 137.03154,482.39199 L 131.1084,484.32937 L 135.99447,488.06011 C 140.87877,491.78955 159.43885,517.91082 159.43885,521.05549 C 159.43885,522.14846 157.91725,522.61634 154.36275,522.61634 L 149.28665,522.61634 L 141.16582,510.42952 C 125.02459,486.20646 123.72771,485.20563 108.48054,485.20563 L 98.22132,485.20563 L 98.22132,503.91098 L 98.22132,522.61634 L 93.686688,522.61634 L 89.152056,522.61634 L 89.152056,480.49531 z M 137.08405,473.56985 C 146.35253,467.4952 146.11704,454.09071 136.65641,449.2287 C 134.83828,448.29431 127.98982,447.82278 116.07643,447.81162 L 98.22132,447.79491 L 98.22132,462.08445 L 98.22132,476.3739 L 116.12715,475.97176 C 130.85996,475.64081 134.57363,475.21518 137.08402,473.56984 L 137.08405,473.56985 z"
     id="path3221"
     transform="scale(0.8,0.8)" />
  <path
     style="fill:#000075;fill-opacity:1"
     d="M 200.35011,522.37991 C 188.59606,520.59544 179.21733,512.29699 174.07305,499.12957 C 172.05436,493.96243 171.49408,490.17396 171.42716,481.23782 C 171.28196,461.85007 176.41942,451.05598 189.48376,443.2998 C 195.65417,439.6365 197.11729,439.25939 206.52781,438.90701 C 212.18963,438.69503 218.98902,439.10507 221.63759,439.81826 C 227.40785,441.37202 234.41836,447.42696 238.48874,454.37253 C 241.35316,459.2603 241.38334,459.49394 239.34298,460.98589 C 235.35969,463.89855 232.41262,462.88094 229.26216,457.50509 C 223.94395,448.43027 215.43493,444.89954 203.44918,446.79423 C 195.40023,448.06658 189.14518,452.62647 185.06228,460.19812 C 182.31421,465.29436 181.68812,467.99739 181.23083,476.7397 C 180.26216,495.25871 185.12508,506.82491 196.01081,511.89299 C 210.32323,518.55642 226.15015,512.91534 231.86732,499.11285 C 232.67412,497.16506 234.03835,495.30126 234.89896,494.97101 C 236.42331,494.38606 243.32955,496.26538 243.32955,497.2651 C 243.32955,498.48753 238.27928,507.65422 235.74093,511.03917 C 228.83946,520.24239 215.15492,524.62752 200.35009,522.37989 L 200.35011,522.37991 z"
     id="path3223"
     transform="scale(0.8,0.8)" />
  <path
     style="fill:#000075;fill-opacity:1"
     d="M 280.74026,485.2405 L 280.74026,447.86472 L 266.85295,447.54637 L 252.96564,447.22808 L 252.60694,444.11108 C 252.31645,441.58622 252.84892,440.76571 255.40982,439.79207 C 258.71511,438.53542 316.23419,438.6925 317.49954,439.96165 C 317.86652,440.32971 317.84433,442.24274 317.45031,444.21287 L 316.7339,447.79491 L 303.27171,447.79491 L 289.80952,447.79491 L 289.80952,484.50657 L 289.80952,521.21822 L 287.25879,521.90179 C 280.29805,523.76722 280.74026,526.25428 280.74026,485.24052 L 280.74026,485.2405 z"
     id="path3225"
     transform="scale(0.8,0.8)" />
  <path
     style="fill:#000075;fill-opacity:1"
     d="M 356.86176,522.58811 C 345.97158,520.32151 336.12573,511.56318 331.50615,500.03314 C 329.38253,494.73275 328.96781,491.50417 328.94635,480.10417 C 328.92271,467.5442 329.16467,465.9783 332.09966,459.69832 C 336.23361,450.85294 340.94544,446.00937 349.32657,441.98971 C 355.27414,439.13722 357.41772,438.72733 366.39232,438.72654 C 375.16434,438.72577 377.51248,439.15243 382.54864,441.66208 C 385.78966,443.27715 389.9198,446.39216 391.72685,448.58439 C 395.51452,453.17931 399.34821,459.93858 398.59093,460.68612 C 398.3066,460.96689 396.28835,461.52918 394.10606,461.93566 C 390.30536,462.6436 389.9707,462.42551 386.16036,456.75778 C 381.01855,449.10966 376.0724,446.51955 366.60907,446.51955 C 357.26278,446.51955 350.87101,449.12652 345.85783,454.98329 C 340.14336,461.65931 338.2131,469.37177 338.75347,483.3686 C 339.14357,493.47236 339.59798,495.58133 342.561,501.03864 C 347.25499,509.68404 353.17257,513.61639 362.63118,514.37563 C 374.98522,515.36727 382.69579,511.28952 387.90506,501.0094 C 389.42122,498.0172 391.0572,495.32475 391.54025,495.02621 C 393.2022,493.99908 398.82786,495.71092 399.49388,497.44647 C 400.43108,499.88866 394.49457,510.74814 390.26761,514.32401 C 381.94259,521.36656 367.801,524.86494 356.86173,522.5881 L 356.86176,522.58811 z"
     id="path3227"
     transform="scale(0.8,0.8)" />
  <path
     style="fill:#000075;fill-opacity:1"
     d="M 322.44247,390.65541 C 309.63696,389.75306 275.41199,381.08425 275.41199,378.74312 C 275.41199,377.7305 284.05159,361.60577 292.2304,347.35366 L 298.62658,336.20789 L 303.74077,336.82886 C 317.28989,338.47412 340.90664,338.8821 347.16594,337.57903 C 358.01941,335.31957 370.56277,328.28815 379.46634,319.47244 C 400.76299,298.38594 404.64733,277.08074 393.70358,241.38258 C 388.0719,223.01222 388.06306,222.96459 390.9333,226.42829 C 395.2873,231.68252 407.95355,258.63461 412.51041,272.34144 C 418.50873,290.38417 420.06743,303.48604 418.33106,321.26849 C 415.21595,353.17075 397.32416,375.31735 365.5378,386.61633 C 355.08726,390.33115 339.10199,391.82936 322.44244,390.65542 L 322.44247,390.65541 z"
     id="path3229"
     transform="scale(0.8,0.8)" />
  <path
     style="fill:#000075;fill-opacity:1"
     d="M 58.505448,521.55723 C 57.564648,520.61649 57.525684,444.47506 58.464183,440.97307 C 59.002251,438.96516 59.964001,438.42234 62.983329,438.42234 L 66.818913,438.42234 L 66.818913,480.36769 L 66.818913,522.31303 L 63.04008,522.31303 C 60.961677,522.31303 58.921092,521.97293 58.505425,521.55726 L 58.505448,521.55723 z"
     id="path3231"
     transform="scale(0.8,0.8)" />
  <path
     style="fill:#000075;fill-opacity:1"
     d="M 198.53214,522.30583 C 188.93645,520.27849 180.01306,512.37567 174.85908,501.34036 C 171.91132,495.02881 171.68228,493.51675 171.68228,480.36769 C 171.68228,467.47244 171.94769,465.63109 174.63105,459.91011 C 178.68401,451.26903 183.38134,446.27288 191.15632,442.33337 C 197.21879,439.26159 198.72609,438.98917 209.65982,438.98917 C 220.55106,438.98917 222.00604,439.24949 226.77071,442.05055 C 232.08082,445.17227 236.19596,449.74015 239.52958,456.21312 C 241.54363,460.1239 241.1652,460.74861 235.93456,462.1475 C 233.22911,462.87103 232.49406,462.35253 228.93188,457.20765 C 223.24382,448.99232 217.11059,446.03997 207.08753,446.69242 C 196.78819,447.36288 190.25909,451.35981 185.42488,459.95375 C 182.27902,465.54618 181.87878,467.3508 181.49709,477.66198 C 180.60453,501.77414 189.66461,514.32764 207.95934,514.32764 C 219.19259,514.32767 226.02217,510.01294 231.74053,499.30353 C 234.10503,494.87524 237.10966,493.94157 241.4759,496.27831 C 243.61109,497.421 243.5945,497.59606 240.83665,503.03841 C 234.41422,515.71243 224.92957,522.07094 211.24234,522.87839 C 206.94264,523.13202 201.22304,522.87441 198.53211,522.30587 L 198.53214,522.30583 z"
     id="path3233"
     transform="scale(0.8,0.8)" />
  <path
     style="fill:#000075;fill-opacity:1"
     d=""
     id="path3235"
     transform="scale(0.8,0.8)" />
  <path
     style="fill:#000075;fill-opacity:1"
     d="M 279.94662,484.9675 L 279.94662,447.4916 L 266.27091,447.4916 L 252.59518,447.4916 L 252.95042,443.80721 C 253.29884,440.19351 253.43614,440.10887 260.1076,439.39562 C 269.43635,438.39828 292.94597,438.28143 306.30417,439.16602 L 317.35733,439.89795 L 317.35733,443.69478 L 317.35733,447.4916 L 303.76893,447.4916 L 290.18054,447.4916 L 289.88162,484.6189 L 289.58271,521.7462 L 284.76467,522.0948 L 279.94662,522.44339 L 279.94662,484.9675 z"
     id="path3237"
     transform="scale(0.8,0.8)" />
  <path
     style="fill:#000075;fill-opacity:1"
     d="M 260.72252,100.87567 C 258.50258,92.051715 252.83971,79.498198 247.14197,70.77012 C 234.25434,51.028237 212.9476,39.354099 189.86604,39.388176 C 178.72595,39.404626 171.58339,41.214726 161.26683,46.635924 C 152.69507,51.140265 136.24353,64.852663 127.71683,74.599957 C 124.77505,77.962829 122.36816,80.284322 122.36816,79.758792 C 122.36816,77.341391 130.10355,64.730081 138.16435,54.005631 C 154.78527,31.892418 176.05581,14.207943 195.30098,6.5018006 C 205.67812,2.3466039 213.13156,0.83034762 223.18027,0.83034762 C 233.61284,0.83034762 242.22604,3.2490297 256.12824,10.082482 C 266.35093,15.107308 269.37794,17.294826 277.69419,25.667344 C 295.69585,43.790839 302.83137,59.876199 312.31409,103.70981 L 312.86588,106.26054 L 287.47157,106.26054 L 262.07726,106.26054 L 260.72252,100.87567 z"
     id="path3239"
     transform="scale(0.8,0.8)" />
</svg>
